<svg width="158" height="32" viewBox="0 0 158 32" fill="none" xmlns="http://www.w3.org/2000/svg">
<path d="M38.2902 4.43621C40.095 1.78928 42.4712 0.46582 45.4189 0.46582C47.1234 0.46582 48.6674 0.937054 50.051 1.87952C51.4547 2.82199 52.4874 4.0853 53.1491 5.66944C53.8109 4.0853 54.8436 2.82199 56.2472 1.87952C57.6509 0.937054 59.205 0.46582 60.9094 0.46582C61.4709 0.46582 62.0224 0.525978 62.5638 0.646293C63.7068 0.86687 64.7495 1.30803 65.692 1.96976C66.6144 2.63149 67.3764 3.44362 67.9779 4.40614C68.2787 4.86734 68.5294 5.36865 68.7299 5.91007C68.8502 6.19081 68.9505 6.50162 69.0307 6.84251C69.1109 7.28367 69.1711 7.70477 69.2112 8.10582C69.2713 8.90792 69.2914 9.71002 69.2713 10.5121V24.2581C69.3114 25.8422 69.8629 27.1757 70.9257 28.2586C72.0085 29.3214 73.3219 29.8527 74.866 29.8527H75.257V31.086H62.0224V29.8527H62.4134C63.9574 29.8527 65.2608 29.3214 66.3236 28.2586C67.4064 27.1757 67.9679 25.8422 68.008 24.2581V14.2118C68.0281 12.2467 67.2962 10.3316 65.8123 8.46676C64.3284 6.60188 62.0324 5.25837 58.9242 4.43621C58.3828 4.3159 57.8715 4.25574 57.3902 4.25574C56.9691 4.25574 56.5781 4.30587 56.2172 4.40614C55.8562 4.48635 55.5454 4.61669 55.2847 4.79716C54.8837 5.03779 54.5628 5.46892 54.3222 6.09054C54.1818 6.43144 54.0615 6.78236 53.9613 7.1433C53.8409 7.68472 53.7808 8.24619 53.7808 8.82771V24.2581C53.8209 25.8422 54.3824 27.1757 55.4652 28.2586C56.548 29.3214 57.8514 29.8527 59.3754 29.8527H59.7664V31.086H46.5318V29.8527H46.9228C48.4669 29.8527 49.7703 29.3214 50.8331 28.2586C51.9159 27.1757 52.4874 25.8422 52.5476 24.2581V14.2118C52.5476 12.2467 51.8056 10.3316 50.3217 8.46676C48.8378 6.60188 46.5418 5.25837 43.4337 4.43621C42.8923 4.3159 42.3809 4.25574 41.8997 4.25574C41.4786 4.25574 41.0876 4.30587 40.7266 4.40614C40.3657 4.48635 40.0549 4.61669 39.7942 4.79716C39.3931 5.03779 39.0723 5.46892 38.8316 6.09054C38.6913 6.43144 38.581 6.78236 38.5008 7.1433C38.3604 7.68472 38.2902 8.24619 38.2902 8.82771V26.7847C38.6311 28.6697 39.7541 29.6923 41.659 29.8527L42.0802 29.7625V31.086H28.8154V29.7625L29.2666 29.8527C30.2091 29.8126 30.9911 29.4818 31.6128 28.8601C32.2544 28.2385 32.5853 27.4565 32.6054 26.514V4.97763C32.5652 4.05522 32.2143 3.2832 31.5526 2.66157C30.9109 2.01989 30.1389 1.69905 29.2365 1.69905L28.8154 1.72913V0.46582H34.1694C35.3124 0.46582 36.3251 0.906975 37.2074 1.78928L37.2375 1.81936C37.2776 1.87952 37.3277 1.93968 37.3879 1.99984C37.4079 2.03994 37.428 2.07002 37.448 2.09007C37.4881 2.13018 37.5182 2.17028 37.5383 2.21039L37.5683 2.24047L37.5984 2.30062C37.6385 2.34073 37.6686 2.38083 37.6887 2.42094C37.7288 2.50115 37.7689 2.58136 37.809 2.66157C37.8691 2.76183 37.9293 2.88215 37.9894 3.02251C38.0496 3.16288 38.0997 3.30325 38.1398 3.44362C38.2401 3.76446 38.2902 4.09532 38.2902 4.43621Z" fill="white"/>
<path d="M23.9126 18.0914C24.1332 18.5125 24.3136 18.9336 24.454 19.3547C24.7147 20.1568 24.845 20.9689 24.845 21.7911C24.845 22.4929 24.7548 23.1847 24.5743 23.8665C23.7522 26.353 22.0577 28.258 19.491 29.5815C16.9444 30.8849 14.3877 31.5366 11.8209 31.5366C8.85318 31.5366 6.06588 30.7244 3.45905 29.1002C3.27858 28.9799 3.07806 28.9197 2.85748 28.9197C2.61685 28.9197 2.38625 28.9999 2.16567 29.1604C1.94509 29.3208 1.7947 29.5614 1.71449 29.8822C1.69444 30.0627 1.68441 30.2432 1.68441 30.4237L1.71449 30.8448H0.421102V17.3695H1.71449L1.68441 17.7906C1.68441 18.4122 1.85486 19.0138 2.19575 19.5953C2.23585 19.6555 2.26593 19.6956 2.28598 19.7156C3.04798 20.8586 3.91024 21.9214 4.87276 22.904C5.07328 23.0844 5.26378 23.2649 5.44425 23.4454C8.2516 25.9921 11.2695 27.5361 14.498 28.0775C15.1597 28.1778 15.7913 28.2279 16.3929 28.2279C17.5961 28.2279 18.6789 28.0374 19.6414 27.6564C19.9422 27.5361 20.2931 27.3456 20.6942 27.0849C21.1153 26.8042 21.4461 26.4132 21.6868 25.9118C21.8071 25.6311 21.8672 25.3203 21.8672 24.9794C21.8672 24.458 21.7169 23.8364 21.4161 23.1145C20.8345 21.8913 20.0725 20.9088 19.1301 20.1668C18.2077 19.4249 17.3955 18.8935 16.6937 18.5726C15.3502 17.951 13.9365 17.4497 12.4526 17.0687C11.6906 16.8281 10.9286 16.5874 10.1666 16.3468L10.0463 16.2867C7.78037 15.6249 5.56457 14.6524 3.3989 13.369C2.45643 12.8075 1.65433 12.0456 0.992598 11.083C0.330866 10.1205 0 9.0477 0 7.86461C0 7.38335 0.0701837 6.89206 0.210551 6.39075C0.772021 4.46571 2.37622 2.91164 5.02315 1.72854C7.10861 0.826181 9.36451 0.375 11.7909 0.375H11.9413C13.9265 0.395052 15.8415 0.786076 17.6863 1.54807C18.0472 1.66839 18.3881 1.81878 18.709 1.99925C18.7691 2.0193 18.8293 2.02933 18.8894 2.02933C19.0699 2.02933 19.1902 1.93909 19.2504 1.75862C19.3306 1.45783 19.3707 1.1771 19.3707 0.916417L19.3106 0.495315H20.634V10.3912H19.3106L19.3707 9.97012C19.3707 9.32844 19.2003 8.73689 18.8594 8.19547C18.4984 7.61395 18.0773 7.10261 17.5961 6.66146C16.5132 5.73904 15.4304 4.97705 14.3476 4.37547C12.6431 3.53327 10.8384 3.07206 8.93339 2.99185C8.41202 2.93169 7.89066 2.90161 7.36929 2.90161C6.84793 2.90161 6.33659 2.95175 5.83528 3.05201C5.33396 3.15227 4.86273 3.33274 4.42157 3.59343C4.08068 3.814 3.78992 4.08471 3.54929 4.40555C3.32871 4.70634 3.21843 5.04723 3.21843 5.42823C3.21843 5.96965 3.40892 6.48098 3.78992 6.96224C4.19097 7.42345 4.64215 7.84455 5.14346 8.22555C5.66483 8.5865 6.12604 8.89731 6.52709 9.15799C8.11123 10.2007 9.79564 10.9828 11.5803 11.5041C12.2621 11.7047 12.9539 11.8952 13.6557 12.0756C15.0594 12.4165 16.4531 12.8477 17.8367 13.369C19.0198 13.8102 20.1026 14.3616 21.0852 15.0233C22.2883 15.8054 23.2308 16.8281 23.9126 18.0914Z" fill="white"/>
<path d="M121.385 4.88998C123.172 2.29666 125.526 1 128.446 1C130.134 1 131.663 1.46169 133.034 2.38507C134.424 3.30845 135.447 4.54617 136.102 6.09823C136.758 4.54617 137.781 3.30845 139.171 2.38507C140.561 1.46169 142.101 1 143.789 1C144.345 1 144.891 1.05894 145.427 1.17682C146.56 1.39293 147.592 1.82515 148.526 2.47348C149.44 3.12181 150.194 3.91749 150.79 4.86051C151.088 5.31238 151.336 5.80354 151.535 6.33399C151.654 6.60904 151.753 6.91356 151.833 7.24754C151.912 7.67976 151.972 8.09234 152.012 8.48527C152.071 9.27112 152.091 10.057 152.071 10.8428V24.3104C152.111 25.8625 152.657 27.169 153.71 28.2299C154.782 29.2711 156.083 29.7917 157.613 29.7917H158V31H144.891V29.7917H145.278C146.808 29.7917 148.099 29.2711 149.152 28.2299C150.224 27.169 150.78 25.8625 150.82 24.3104V14.4676C150.84 12.5422 150.115 10.666 148.645 8.8389C147.175 7.01179 144.901 5.69548 141.823 4.88998C141.286 4.7721 140.78 4.71316 140.303 4.71316C139.886 4.71316 139.499 4.76228 139.141 4.86051C138.784 4.9391 138.476 5.0668 138.218 5.24362C137.82 5.47937 137.503 5.90177 137.264 6.51081C137.125 6.84479 137.006 7.18861 136.907 7.54224C136.788 8.07269 136.728 8.62279 136.728 9.19253V24.3104C136.768 25.8625 137.324 27.169 138.396 28.2299C139.469 29.2711 140.76 29.7917 142.269 29.7917H142.657V31H129.548V29.7917H129.935C131.465 29.7917 132.756 29.2711 133.808 28.2299C134.881 27.169 135.447 25.8625 135.506 24.3104V14.4676C135.506 12.5422 134.772 10.666 133.302 8.8389C131.832 7.01179 129.558 5.69548 126.479 4.88998C125.943 4.7721 125.437 4.71316 124.96 4.71316C124.543 4.71316 124.155 4.76228 123.798 4.86051C123.44 4.9391 123.133 5.0668 122.874 5.24362C122.477 5.47937 122.159 5.90177 121.921 6.51081C121.782 6.84479 121.673 7.18861 121.593 7.54224C121.454 8.07269 121.385 8.62279 121.385 9.19253V26.7859C121.722 28.6326 122.835 29.6346 124.722 29.7917L125.139 29.7033V31H112V29.7033L112.447 29.7917C113.38 29.7525 114.155 29.4283 114.771 28.8193C115.406 28.2102 115.734 27.444 115.754 26.5206V5.42043C115.714 4.5167 115.367 3.76031 114.711 3.15128C114.076 2.52259 113.311 2.20825 112.417 2.20825L112 2.23772V1H117.303C118.435 1 119.438 1.43222 120.312 2.29666L120.342 2.32613C120.382 2.38507 120.431 2.44401 120.491 2.50295C120.511 2.54224 120.531 2.57171 120.551 2.59136C120.59 2.63065 120.62 2.66994 120.64 2.70923L120.67 2.7387L120.699 2.79764C120.739 2.83694 120.769 2.87623 120.789 2.91552C120.829 2.99411 120.868 3.07269 120.908 3.15128C120.968 3.24951 121.027 3.36739 121.087 3.50491C121.146 3.64244 121.196 3.77996 121.236 3.91749C121.335 4.23183 121.385 4.55599 121.385 4.88998Z" fill="white"/>
<path d="M100.375 0C105.765 1.31358e-06 110 4.07183 110 9.29199C110 15.6607 104.049 20.8813 95.0371 28.7705L92.5 31L89.9629 28.7705C80.9506 20.8813 75.0003 15.6607 75 9.29199C75 4.07183 79.235 0 84.625 0C87.6699 2.23829e-07 90.5925 1.36824 92.5 3.51367C94.4075 1.36824 97.3301 0 100.375 0ZM97.6748 5C95.6739 5.00006 93.7535 5.9275 92.5 7.38086C91.2465 5.9275 89.3261 5.00006 87.3252 5C83.7833 5 81.0002 7.75787 81 11.2939C81 15.6083 84.9097 19.145 90.832 24.4893L92.5 26L94.168 24.4893C100.09 19.145 104 15.6083 104 11.2939C104 7.75787 101.217 5 97.6748 5Z" fill="white"/>
</svg>
